<svg width="542" height="745" viewBox="0 0 542 745" fill="none" xmlns="http://www.w3.org/2000/svg">
<path d="M388.541 490.81V474.21H347.391V485.04V490.81V582.18V627.33H388.541L541.661 474.21L388.541 627.33V490.81Z" fill="#222250"/>
<path d="M194.271 490.81V485.04V474.21H153.121V490.81V627.33H194.271V582.18V490.81Z" fill="#222250"/>
<path d="M347.392 490.81V209.81C347.392 189.505 339.325 170.032 324.968 155.674C310.61 141.316 291.136 133.25 270.831 133.25C250.527 133.25 231.053 141.316 216.695 155.674C202.338 170.032 194.271 189.505 194.271 209.81V668.43L270.831 744.99L347.392 668.43V490.81Z" fill="#44A5DD"/>
<path d="M270.831 121.42C304.36 121.42 331.541 94.2392 331.541 60.71C331.541 27.1808 304.36 0 270.831 0C237.302 0 210.121 27.1808 210.121 60.71C210.121 94.2392 237.302 121.42 270.831 121.42Z" fill="#44A5DD"/>
<path d="M153.12 474.21V306.99C153.12 286.685 145.054 267.212 130.696 252.854C116.338 238.496 96.865 230.43 76.56 230.43C56.255 230.43 36.7817 238.496 22.424 252.854C8.06616 267.212 0 286.685 0 306.99V474.21L153.12 627.33V474.21Z" fill="#30358C"/>
<path d="M541.661 474.21V306.99C541.661 296.936 539.681 286.981 535.833 277.692C531.986 268.403 526.346 259.963 519.237 252.854C512.128 245.745 503.688 240.105 494.399 236.258C485.111 232.41 475.155 230.43 465.101 230.43C455.047 230.43 445.092 232.41 435.803 236.258C426.514 240.105 418.074 245.745 410.965 252.854C403.856 259.963 398.216 268.403 394.369 277.692C390.521 286.981 388.541 296.936 388.541 306.99V627.33L541.661 474.21Z" fill="#4972B7"/>
<path d="M136.524 167.612C141.896 134.516 119.422 103.332 86.3256 97.9595C53.2296 92.5873 22.0449 115.062 16.6726 148.158C11.3004 181.254 33.775 212.439 66.871 217.811C99.967 223.183 131.152 200.709 136.524 167.612Z" fill="#30358C"/>
<path d="M483.636 215.632C515.566 205.399 533.154 171.22 522.921 139.29C512.688 107.361 478.509 89.7722 446.579 100.005C414.65 110.238 397.061 144.418 407.294 176.347C417.527 208.277 451.707 225.865 483.636 215.632Z" fill="#4972B7"/>
</svg>
